<svg xmlns="http://www.w3.org/2000/svg" xmlns:xlink="http://www.w3.org/1999/xlink" id="Layer_1" x="0" y="0" version="1.1" viewBox="0 0 400 400" xml:space="preserve" style="enable-background:new 0 0 400 400"><style type="text/css">.st0{opacity:.4;fill:#ed1c24}</style><title>cancel</title><path d="M200,6.6C93.3,6.6,6.6,93.3,6.6,200c0,106.7,86.8,193.4,193.4,193.4c106.7,0,193.4-86.8,193.4-193.4	C393.4,93.3,306.7,6.6,200,6.6z M200,37.6c36.4,0,70,12,97.2,32.3L69.9,297.2C49.6,270,37.6,236.4,37.6,200	C37.6,110.4,110.4,37.6,200,37.6z M200,362.4c-40.9,0-78.3-15.2-106.8-40.2L322.2,93.2c25,28.6,40.2,66,40.2,106.8	C362.4,289.6,289.6,362.4,200,362.4z" class="st0"/></svg>